solid stl_item0
  facet normal 0 0 1
    outer loop
      vertex -32.5 -21.5 20.25
      vertex -32.5 -23.5 20.25
      vertex -25.5 -21.5 20.25
    endloop
  endfacet
  facet normal 0 0 1
    outer loop
      vertex -24 -23.5 20.25
      vertex -25.5 -21.5 20.25
      vertex -32.5 -23.5 20.25
    endloop
  endfacet
  facet normal 0 0 1
    outer loop
      vertex 18 8.5 20.25
      vertex -24 7 20.25
      vertex 18 7 20.25
    endloop
  endfacet
  facet normal 0 0 1
    outer loop
      vertex 25.5 -23.5 20.25
      vertex 25.5 -21.5 20.25
      vertex 17.5 -21.5 20.25
    endloop
  endfacet
  facet normal 0 0 1
    outer loop
      vertex 25.5 -23.5 20.25
      vertex 17.5 -21.5 20.25
      vertex 17.5 -23.5 20.25
    endloop
  endfacet
  facet normal 0 -1 0
    outer loop
      vertex -30.025 -23.5 17.221
      vertex -32.5 -23.5 20.25
      vertex -30.38 -23.5 16.523
    endloop
  endfacet
  facet normal 0.70711 0 0.70711
    outer loop
      vertex -29.471 -23.5 2.725
      vertex -29.471 -21.5 2.725
      vertex -30.025 -21.5 3.279
    endloop
  endfacet
  facet normal 0.70711 0 0.70711
    outer loop
      vertex -29.471 -23.5 2.725
      vertex -30.025 -21.5 3.279
      vertex -30.025 -23.5 3.279
    endloop
  endfacet
  facet normal 0 1 0
    outer loop
      vertex 23.025 -21.5 3.279
      vertex 25.5 -21.5 0
      vertex 22.471 -21.5 2.725
    endloop
  endfacet
  facet normal 0 1 0
    outer loop
      vertex 23.38 -21.5 3.977
      vertex 25.5 -21.5 0
      vertex 23.025 -21.5 3.279
    endloop
  endfacet
  facet normal 0 -1 0
    outer loop
      vertex 17 -23.5 0
      vertex 18.62 -23.5 3.977
      vertex 17 -23.5 5.247
    endloop
  endfacet
  facet normal 0.45333 0 0.89134
    outer loop
      vertex -28.773 -23.5 2.37
      vertex -28.773 -21.5 2.37
      vertex -29.471 -21.5 2.725
    endloop
  endfacet
  facet normal 0.45333 0 0.89134
    outer loop
      vertex -28.773 -23.5 2.37
      vertex -29.471 -21.5 2.725
      vertex -29.471 -23.5 2.725
    endloop
  endfacet
  facet normal 0 -1 0
    outer loop
      vertex 18.5 -5.498 15.76267
      vertex 18.498 -5.498 15.75
      vertex 18.5 -5.498 15.73733
    endloop
  endfacet
  facet normal 0 -1 0
    outer loop
      vertex -28.773 -23.5 18.13
      vertex -28 -23.5 18.253
      vertex -32.5 -23.5 20.25
    endloop
  endfacet
  facet normal 0 -1 0
    outer loop
      vertex -29.471 -23.5 17.775
      vertex -28.773 -23.5 18.13
      vertex -32.5 -23.5 20.25
    endloop
  endfacet
  facet normal 0 -1 0
    outer loop
      vertex -24 -23.5 20.25
      vertex -32.5 -23.5 20.25
      vertex -28 -23.5 18.253
    endloop
  endfacet
  facet normal 0 -1 0
    outer loop
      vertex -28 -23.5 18.253
      vertex -27.227 -23.5 18.13
      vertex -24 -23.5 20.25
    endloop
  endfacet
  facet normal 0 0 1
    outer loop
      vertex -24 -23.5 20.25
      vertex -24 7 20.25
      vertex -25.5 -21.5 20.25
    endloop
  endfacet
  facet normal 0 0 1
    outer loop
      vertex -25.5 8.5 20.25
      vertex -25.5 -21.5 20.25
      vertex -24 7 20.25
    endloop
  endfacet
  facet normal 0 0 1
    outer loop
      vertex -25.5 8.5 20.25
      vertex -24 7 20.25
      vertex 18 8.5 20.25
    endloop
  endfacet
  facet normal 0 -1 0
    outer loop
      vertex 18.62 -23.5 16.523
      vertex 18.975 -23.5 17.221
      vertex 17 -23.5 20
    endloop
  endfacet
  facet normal 0 -1 0
    outer loop
      vertex 17 -23.5 15.252
      vertex 18.62 -23.5 16.523
      vertex 17 -23.5 20
    endloop
  endfacet
  facet normal 0 0 -1
    outer loop
      vertex -25.5 -21.5 0
      vertex -32.5 -23.5 0
      vertex -32.5 -21.5 0
    endloop
  endfacet
  facet normal 0.15714 0 0.98758
    outer loop
      vertex -28.773 -21.5 2.37
      vertex -28.773 -23.5 2.37
      vertex -28 -23.5 2.247
    endloop
  endfacet
  facet normal 0.15714 0 0.98758
    outer loop
      vertex -28.773 -21.5 2.37
      vertex -28 -23.5 2.247
      vertex -28 -21.5 2.247
    endloop
  endfacet
  facet normal 0 0 -1
    outer loop
      vertex 17 -23.5 0
      vertex 18.5 -21.5 0
      vertex 25.5 -23.5 0
    endloop
  endfacet
  facet normal 0 0 -1
    outer loop
      vertex 25.5 -21.5 0
      vertex 25.5 -23.5 0
      vertex 18.5 -21.5 0
    endloop
  endfacet
  facet normal -1 0 0
    outer loop
      vertex -25.5 -5.498 4.76267
      vertex -25.5 -6.502 5.247
      vertex -25.5 2.502 5.247
    endloop
  endfacet
  facet normal 0 0 -1
    outer loop
      vertex -25.5 8.5 0
      vertex 17 7 0
      vertex -24 7 0
    endloop
  endfacet
  facet normal 0 -1 0
    outer loop
      vertex -29.471 -23.5 6.775
      vertex -28.773 -23.5 7.13
      vertex -30.10472 -23.5 7.253
    endloop
  endfacet
  facet normal 0 -1 0
    outer loop
      vertex -28 -23.5 7.253
      vertex -27.227 -23.5 7.13
      vertex -28 -23.5 13.247
    endloop
  endfacet
  facet normal 0 -1 0
    outer loop
      vertex -27.227 -23.5 13.37
      vertex -28 -23.5 13.247
      vertex -27.227 -23.5 7.13
    endloop
  endfacet
  facet normal 0 -1 0
    outer loop
      vertex -27.227 -23.5 7.13
      vertex -26.529 -23.5 6.775
      vertex -27.227 -23.5 13.37
    endloop
  endfacet
  facet normal -0.15714 0 0.98758
    outer loop
      vertex -27.227 -23.5 2.37
      vertex -27.227 -21.5 2.37
      vertex -28 -21.5 2.247
    endloop
  endfacet
  facet normal -0.15714 0 0.98758
    outer loop
      vertex -27.227 -23.5 2.37
      vertex -28 -21.5 2.247
      vertex -28 -23.5 2.247
    endloop
  endfacet
  facet normal 0 -1 0
    outer loop
      vertex -28 -23.5 2.247
      vertex -28.773 -23.5 2.37
      vertex -32.5 -23.5 0
    endloop
  endfacet
  facet normal -0.45333 0 0.89134
    outer loop
      vertex -26.529 -23.5 2.725
      vertex -26.529 -21.5 2.725
      vertex -27.227 -21.5 2.37
    endloop
  endfacet
  facet normal -0.45333 0 0.89134
    outer loop
      vertex -26.529 -23.5 2.725
      vertex -27.227 -21.5 2.37
      vertex -27.227 -23.5 2.37
    endloop
  endfacet
  facet normal 0 1 0
    outer loop
      vertex 22.471 -21.5 6.775
      vertex 25.5 -21.5 13.247
      vertex 23.025 -21.5 6.221
    endloop
  endfacet
  facet normal 0 0 -1
    outer loop
      vertex 17 7 0
      vertex 18.5 -21.5 0
      vertex 17 -23.5 0
    endloop
  endfacet
  facet normal 0 0 -1
    outer loop
      vertex 18.5 8.5 0
      vertex 18.5 -21.5 0
      vertex 17 7 0
    endloop
  endfacet
  facet normal 0 0 -1
    outer loop
      vertex 18.5 8.5 0
      vertex 17 7 0
      vertex -25.5 8.5 0
    endloop
  endfacet
  facet normal -0.70711 0 0.70711
    outer loop
      vertex -25.975 -23.5 3.279
      vertex -25.975 -21.5 3.279
      vertex -26.529 -21.5 2.725
    endloop
  endfacet
  facet normal -0.70711 0 0.70711
    outer loop
      vertex -25.975 -23.5 3.279
      vertex -26.529 -21.5 2.725
      vertex -26.529 -23.5 2.725
    endloop
  endfacet
  facet normal 0 0 -1
    outer loop
      vertex -32.5 -23.5 0
      vertex -25.5 -21.5 0
      vertex -24 -23.5 0
    endloop
  endfacet
  facet normal 0 0 -1
    outer loop
      vertex -24 7 0
      vertex -24 -23.5 0
      vertex -25.5 -21.5 0
    endloop
  endfacet
  facet normal 0 0 -1
    outer loop
      vertex -25.5 -21.5 0
      vertex -25.5 8.5 0
      vertex -24 7 0
    endloop
  endfacet
  facet normal 0 1 0
    outer loop
      vertex 20.227 -21.5 13.37
      vertex 21 -21.5 13.247
      vertex 20.227 -21.5 7.13
    endloop
  endfacet
  facet normal 0 -1 0
    outer loop
      vertex -32.5 -23.5 20.25
      vertex -32.5 -23.5 0
      vertex -30.503 -23.5 4.75
    endloop
  endfacet
  facet normal 0 -1 0
    outer loop
      vertex -30.503 -23.5 4.75
      vertex -30.38 -23.5 5.523
      vertex -32.5 -23.5 20.25
    endloop
  endfacet
  facet normal 0 -1 0
    outer loop
      vertex -32.5 -23.5 20.25
      vertex -30.10472 -23.5 7.253
      vertex -30.38 -23.5 14.977
    endloop
  endfacet
  facet normal 0 -1 0
    outer loop
      vertex -32.5 -23.5 20.25
      vertex -30.38 -23.5 14.977
      vertex -30.503 -23.5 15.75
    endloop
  endfacet
  facet normal 0 -1 0
    outer loop
      vertex -30.503 -23.5 15.75
      vertex -30.38 -23.5 16.523
      vertex -32.5 -23.5 20.25
    endloop
  endfacet
  facet normal 0 -1 0
    outer loop
      vertex -30.025 -23.5 17.221
      vertex -29.471 -23.5 17.775
      vertex -32.5 -23.5 20.25
    endloop
  endfacet
  facet normal -0.89134 0 0.45333
    outer loop
      vertex -25.62 -23.5 3.977
      vertex -25.62 -21.5 3.977
      vertex -25.975 -21.5 3.279
    endloop
  endfacet
  facet normal -0.89134 0 0.45333
    outer loop
      vertex -25.62 -23.5 3.977
      vertex -25.975 -21.5 3.279
      vertex -25.975 -23.5 3.279
    endloop
  endfacet
  facet normal 0 -1 0
    outer loop
      vertex 17.5 -23.5 20
      vertex 20.227 -23.5 18.13
      vertex 17.5 -23.5 20.25
    endloop
  endfacet
  facet normal 0.98777 0 0.1559
    outer loop
      vertex 18.5 -5.498 4.73733
      vertex 18.498 -5.498 4.75
      vertex 18.5 -21.5 4.73733
    endloop
  endfacet
  facet normal 0 1 0
    outer loop
      vertex 18.975 -21.5 6.221
      vertex 18.5 -21.5 7.252
      vertex 19.529 -21.5 6.775
    endloop
  endfacet
  facet normal -0.98777 0 0.1559
    outer loop
      vertex -25.62 -21.5 3.977
      vertex -25.62 -23.5 3.977
      vertex -25.5 -21.5 4.73733
    endloop
  endfacet
  facet normal -0.98777 0 -0.1559
    outer loop
      vertex -25.62 -23.5 5.523
      vertex -25.62 -21.5 5.523
      vertex -25.5 -21.5 4.76267
    endloop
  endfacet
  facet normal -0.98777 0 -0.1559
    outer loop
      vertex -25.62 -23.5 5.523
      vertex -25.5 -21.5 4.76267
      vertex -25.498 -23.5 4.75
    endloop
  endfacet
  facet normal 0 1 0
    outer loop
      vertex 18.5 -21.5 7.252
      vertex 18.975 -21.5 6.221
      vertex 18.62 -21.5 5.523
    endloop
  endfacet
  facet normal 0 1 0
    outer loop
      vertex 18.5 -21.5 7.252
      vertex 18.62 -21.5 5.523
      vertex 18.5 -21.5 4.76267
    endloop
  endfacet
  facet normal -0.89134 0 -0.45333
    outer loop
      vertex -25.975 -23.5 6.221
      vertex -25.975 -21.5 6.221
      vertex -25.62 -21.5 5.523
    endloop
  endfacet
  facet normal -0.89134 0 -0.45333
    outer loop
      vertex -25.975 -23.5 6.221
      vertex -25.62 -21.5 5.523
      vertex -25.62 -23.5 5.523
    endloop
  endfacet
  facet normal 0 -1 0
    outer loop
      vertex 18.975 -23.5 14.279
      vertex 17 -23.5 5.247
      vertex 19.529 -23.5 13.725
    endloop
  endfacet
  facet normal -0.70711 0 -0.70711
    outer loop
      vertex -26.529 -23.5 6.775
      vertex -26.529 -21.5 6.775
      vertex -25.975 -21.5 6.221
    endloop
  endfacet
  facet normal -0.70711 0 -0.70711
    outer loop
      vertex -26.529 -23.5 6.775
      vertex -25.975 -21.5 6.221
      vertex -25.975 -23.5 6.221
    endloop
  endfacet
  facet normal 0.98777 0 -0.1559
    outer loop
      vertex 18.5 -5.498 4.76267
      vertex 18.5 -21.5 4.76267
      vertex 18.498 -5.498 4.75
    endloop
  endfacet
  facet normal 0.98777 0 -0.1559
    outer loop
      vertex 18.498 -23.5 4.75
      vertex 18.498 -5.498 4.75
      vertex 18.5 -21.5 4.76267
    endloop
  endfacet
  facet normal -0.45333 0 -0.89134
    outer loop
      vertex -27.227 -23.5 7.13
      vertex -27.227 -21.5 7.13
      vertex -26.529 -21.5 6.775
    endloop
  endfacet
  facet normal -0.45333 0 -0.89134
    outer loop
      vertex -27.227 -23.5 7.13
      vertex -26.529 -21.5 6.775
      vertex -26.529 -23.5 6.775
    endloop
  endfacet
  facet normal 0 1 0
    outer loop
      vertex 18.5 8.5 20
      vertex 18.5 8.5 0
      vertex 18 8.5 20
    endloop
  endfacet
  facet normal -0.15714 0 -0.98758
    outer loop
      vertex -28 -23.5 7.253
      vertex -28 -21.5 7.253
      vertex -27.227 -21.5 7.13
    endloop
  endfacet
  facet normal -0.15714 0 -0.98758
    outer loop
      vertex -28 -23.5 7.253
      vertex -27.227 -21.5 7.13
      vertex -27.227 -23.5 7.13
    endloop
  endfacet
  facet normal 0 -1 0
    outer loop
      vertex -24 -23.5 5.247
      vertex -24 -23.5 15.252
      vertex -25.975 -23.5 6.221
    endloop
  endfacet
  facet normal 0 -1 0
    outer loop
      vertex -24 -23.5 5.247
      vertex -25.975 -23.5 6.221
      vertex -25.62 -23.5 5.523
    endloop
  endfacet
  facet normal 0 -1 0
    outer loop
      vertex -25.975 -23.5 14.279
      vertex -26.529 -23.5 6.775
      vertex -24 -23.5 15.252
    endloop
  endfacet
  facet normal 0.98777 0 0.1559
    outer loop
      vertex 18.498 -23.5 4.75
      vertex 18.5 -21.5 4.73733
      vertex 18.498 -5.498 4.75
    endloop
  endfacet
  facet normal 0.15714 0 -0.98758
    outer loop
      vertex -28.773 -23.5 7.13
      vertex -28.773 -21.5 7.13
      vertex -28 -21.5 7.253
    endloop
  endfacet
  facet normal 0.15714 0 -0.98758
    outer loop
      vertex -28.773 -23.5 7.13
      vertex -28 -21.5 7.253
      vertex -28 -23.5 7.253
    endloop
  endfacet
  facet normal 0 -1 0
    outer loop
      vertex -25.498 -23.5 4.75
      vertex -25.62 -23.5 3.977
      vertex -24 -23.5 5.247
    endloop
  endfacet
  facet normal 0 1 0
    outer loop
      vertex 23.025 -21.5 14.279
      vertex 25.5 -21.5 13.247
      vertex 22.471 -21.5 13.725
    endloop
  endfacet
  facet normal 0 1 0
    outer loop
      vertex 21.773 -21.5 7.13
      vertex 21 -21.5 7.252
      vertex 21 -21.5 13.247
    endloop
  endfacet
  facet normal 0 1 0
    outer loop
      vertex 21 -21.5 7.252
      vertex 20.227 -21.5 7.13
      vertex 21 -21.5 13.247
    endloop
  endfacet
  facet normal 0 1 0
    outer loop
      vertex 20.227 -21.5 7.13
      vertex 19.529 -21.5 6.775
      vertex 20.227 -21.5 13.37
    endloop
  endfacet
  facet normal 0 1 0
    outer loop
      vertex 18.5 -21.5 7.252
      vertex 20.227 -21.5 13.37
      vertex 19.529 -21.5 6.775
    endloop
  endfacet
  facet normal 0 1 0
    outer loop
      vertex 18.5 8.5 0
      vertex -25.5 8.5 0
      vertex 18 8.5 20
    endloop
  endfacet
  facet normal 0.45333 0 -0.89134
    outer loop
      vertex -29.471 -23.5 6.775
      vertex -29.471 -21.5 6.775
      vertex -28.773 -21.5 7.13
    endloop
  endfacet
  facet normal 0.45333 0 -0.89134
    outer loop
      vertex -29.471 -23.5 6.775
      vertex -28.773 -21.5 7.13
      vertex -28.773 -23.5 7.13
    endloop
  endfacet
  facet normal 0 -1 0
    outer loop
      vertex -25.62 -23.5 14.977
      vertex -24 -23.5 15.252
      vertex -25.498 -23.5 15.75
    endloop
  endfacet
  facet normal 0 -1 0
    outer loop
      vertex 22.471 -23.5 13.725
      vertex 25.5 -23.5 13.247
      vertex 23.025 -23.5 14.279
    endloop
  endfacet
  facet normal 0 -1 0
    outer loop
      vertex -25.975 -23.5 3.279
      vertex -24 -23.5 0
      vertex -25.62 -23.5 3.977
    endloop
  endfacet
  facet normal 0 -1 0
    outer loop
      vertex 23.38 -23.5 14.977
      vertex 23.025 -23.5 14.279
      vertex 25.5 -23.5 13.247
    endloop
  endfacet
  facet normal -1 0 0
    outer loop
      vertex -25.5 -5.498 15.76267
      vertex -25.5 -21.5 15.76267
      vertex -25.5 -21.5 20.25
    endloop
  endfacet
  facet normal 0 1 0
    outer loop
      vertex 23.503 -21.5 4.75
      vertex 25.5 -21.5 0
      vertex 23.38 -21.5 3.977
    endloop
  endfacet
  facet normal 0 1 0
    outer loop
      vertex 23.38 -21.5 5.523
      vertex 25.5 -21.5 13.247
      vertex 23.503 -21.5 4.75
    endloop
  endfacet
  facet normal 0 1 0
    outer loop
      vertex 23.38 -21.5 5.523
      vertex 23.025 -21.5 6.221
      vertex 25.5 -21.5 13.247
    endloop
  endfacet
  facet normal 0 1 0
    outer loop
      vertex 25.5 -21.5 13.247
      vertex 25.5 -21.5 0
      vertex 23.503 -21.5 4.75
    endloop
  endfacet
  facet normal 0 1 0
    outer loop
      vertex 18 8.5 20.25
      vertex 18 8.5 20
      vertex -25.5 8.5 20.25
    endloop
  endfacet
  facet normal 0.70711 0 -0.70711
    outer loop
      vertex -30.025 -23.5 6.221
      vertex -30.025 -21.5 6.221
      vertex -29.471 -21.5 6.775
    endloop
  endfacet
  facet normal 0.70711 0 -0.70711
    outer loop
      vertex -30.025 -23.5 6.221
      vertex -29.471 -21.5 6.775
      vertex -29.471 -23.5 6.775
    endloop
  endfacet
  facet normal 0 1 0
    outer loop
      vertex -25.5 8.5 20.25
      vertex 18 8.5 20
      vertex -25.5 8.5 0
    endloop
  endfacet
  facet normal 0 1 0
    outer loop
      vertex 21 -21.5 2.247
      vertex 21.773 -21.5 2.37
      vertex 25.5 -21.5 0
    endloop
  endfacet
  facet normal 0 1 0
    outer loop
      vertex 20.227 -21.5 2.37
      vertex 21 -21.5 2.247
      vertex 18.5 -21.5 0
    endloop
  endfacet
  facet normal 0.89134 0 -0.45333
    outer loop
      vertex -30.38 -23.5 5.523
      vertex -30.38 -21.5 5.523
      vertex -30.025 -21.5 6.221
    endloop
  endfacet
  facet normal 0.89134 0 -0.45333
    outer loop
      vertex -30.38 -23.5 5.523
      vertex -30.025 -21.5 6.221
      vertex -30.025 -23.5 6.221
    endloop
  endfacet
  facet normal 0 1 0
    outer loop
      vertex -30.025 -21.5 3.279
      vertex -32.5 -21.5 0
      vertex -30.38 -21.5 3.977
    endloop
  endfacet
  facet normal 1 0 0
    outer loop
      vertex 25.5 -21.5 20.25
      vertex 25.5 -23.5 20.25
      vertex 25.5 -23.5 13.247
    endloop
  endfacet
  facet normal 1 0 0
    outer loop
      vertex 25.5 -21.5 20.25
      vertex 25.5 -23.5 13.247
      vertex 25.5 -21.5 13.247
    endloop
  endfacet
  facet normal 0.98758 0 -0.15714
    outer loop
      vertex -30.503 -23.5 4.75
      vertex -30.503 -21.5 4.75
      vertex -30.38 -21.5 5.523
    endloop
  endfacet
  facet normal 0.98758 0 -0.15714
    outer loop
      vertex -30.503 -23.5 4.75
      vertex -30.38 -21.5 5.523
      vertex -30.38 -23.5 5.523
    endloop
  endfacet
  facet normal 1 0 0
    outer loop
      vertex 25.5 -23.5 0
      vertex 25.5 -21.5 0
      vertex 25.5 -23.5 13.247
    endloop
  endfacet
  facet normal 1 0 0
    outer loop
      vertex 25.5 -21.5 13.247
      vertex 25.5 -23.5 13.247
      vertex 25.5 -21.5 0
    endloop
  endfacet
  facet normal -1 0 0
    outer loop
      vertex -25.5 -21.5 15.73733
      vertex -25.5 -5.498 15.73733
      vertex -25.5 -6.502 15.252
    endloop
  endfacet
  facet normal -1 0 0
    outer loop
      vertex -25.5 2.502 15.252
      vertex -25.5 -6.502 15.252
      vertex -25.5 -5.498 15.73733
    endloop
  endfacet
  facet normal 0 1 0
    outer loop
      vertex -28.773 -21.5 2.37
      vertex -32.5 -21.5 0
      vertex -29.471 -21.5 2.725
    endloop
  endfacet
  facet normal 0 -1 0
    outer loop
      vertex -32.5 -23.5 0
      vertex -30.025 -23.5 3.279
      vertex -30.38 -23.5 3.977
    endloop
  endfacet
  facet normal 0 -1 0
    outer loop
      vertex -32.5 -23.5 0
      vertex -30.38 -23.5 3.977
      vertex -30.503 -23.5 4.75
    endloop
  endfacet
  facet normal 0.98758 0 0.15714
    outer loop
      vertex -30.38 -23.5 14.977
      vertex -30.38 -21.5 14.977
      vertex -30.503 -21.5 15.75
    endloop
  endfacet
  facet normal 0.98758 0 0.15714
    outer loop
      vertex -30.38 -23.5 14.977
      vertex -30.503 -21.5 15.75
      vertex -30.503 -23.5 15.75
    endloop
  endfacet
  facet normal 0 1 0
    outer loop
      vertex -25.5 -21.5 0
      vertex -32.5 -21.5 0
      vertex -28 -21.5 2.247
    endloop
  endfacet
  facet normal 0 1 0
    outer loop
      vertex -30.025 -21.5 3.279
      vertex -29.471 -21.5 2.725
      vertex -32.5 -21.5 0
    endloop
  endfacet
  facet normal 0 -1 0
    outer loop
      vertex 18.5 -5.498 4.76267
      vertex 18.498 -5.498 4.75
      vertex 18.5 -5.498 4.73733
    endloop
  endfacet
  facet normal 0.89134 0 0.45333
    outer loop
      vertex -30.025 -23.5 14.279
      vertex -30.025 -21.5 14.279
      vertex -30.38 -21.5 14.977
    endloop
  endfacet
  facet normal 0.89134 0 0.45333
    outer loop
      vertex -30.025 -23.5 14.279
      vertex -30.38 -21.5 14.977
      vertex -30.38 -23.5 14.977
    endloop
  endfacet
  facet normal 0.70711 0 0.70711
    outer loop
      vertex -29.471 -23.5 13.725
      vertex -29.471 -21.5 13.725
      vertex -30.025 -21.5 14.279
    endloop
  endfacet
  facet normal 0.70711 0 0.70711
    outer loop
      vertex -29.471 -23.5 13.725
      vertex -30.025 -21.5 14.279
      vertex -30.025 -23.5 14.279
    endloop
  endfacet
  facet normal 0 -1 0
    outer loop
      vertex -30.025 -23.5 3.279
      vertex -32.5 -23.5 0
      vertex -29.471 -23.5 2.725
    endloop
  endfacet
  facet normal 0 -1 0
    outer loop
      vertex -28.773 -23.5 2.37
      vertex -29.471 -23.5 2.725
      vertex -32.5 -23.5 0
    endloop
  endfacet
  facet normal 0 -1 0
    outer loop
      vertex -32.5 -23.5 0
      vertex -24 -23.5 0
      vertex -28 -23.5 2.247
    endloop
  endfacet
  facet normal 0 -1 0
    outer loop
      vertex -24 -23.5 0
      vertex -26.529 -23.5 2.725
      vertex -27.227 -23.5 2.37
    endloop
  endfacet
  facet normal 0 -1 0
    outer loop
      vertex -27.227 -23.5 2.37
      vertex -28 -23.5 2.247
      vertex -24 -23.5 0
    endloop
  endfacet
  facet normal 0.45333 0 0.89134
    outer loop
      vertex -28.773 -23.5 13.37
      vertex -28.773 -21.5 13.37
      vertex -29.471 -21.5 13.725
    endloop
  endfacet
  facet normal 0.45333 0 0.89134
    outer loop
      vertex -28.773 -23.5 13.37
      vertex -29.471 -21.5 13.725
      vertex -29.471 -23.5 13.725
    endloop
  endfacet
  facet normal -1 0 0
    outer loop
      vertex -25.5 2.502 15.252
      vertex -25.5 -5.498 15.76267
      vertex -25.5 8.5 20.25
    endloop
  endfacet
  facet normal -1 0 0
    outer loop
      vertex -25.5 8.5 20.25
      vertex -25.5 -5.498 15.76267
      vertex -25.5 -21.5 20.25
    endloop
  endfacet
  facet normal 0.98777 0 -0.1559
    outer loop
      vertex 18.62 -21.5 16.523
      vertex 18.62 -23.5 16.523
      vertex 18.5 -21.5 15.76267
    endloop
  endfacet
  facet normal 0 -1 0
    outer loop
      vertex 18.5 2.502 5.247
      vertex 18.5 2.502 15.252
      vertex 17 2.502 5.247
    endloop
  endfacet
  facet normal 0 -1 0
    outer loop
      vertex 17 2.502 15.252
      vertex 17 2.502 5.247
      vertex 18.5 2.502 15.252
    endloop
  endfacet
  facet normal 0 1 0
    outer loop
      vertex -25.975 -21.5 3.279
      vertex -25.62 -21.5 3.977
      vertex -25.5 -21.5 0
    endloop
  endfacet
  facet normal 0 -1 0
    outer loop
      vertex 17.5 -23.5 20
      vertex 19.529 -23.5 17.775
      vertex 20.227 -23.5 18.13
    endloop
  endfacet
  facet normal 0.15714 0 0.98758
    outer loop
      vertex -28.773 -21.5 13.37
      vertex -28.773 -23.5 13.37
      vertex -28 -23.5 13.247
    endloop
  endfacet
  facet normal 0.15714 0 0.98758
    outer loop
      vertex -28.773 -21.5 13.37
      vertex -28 -23.5 13.247
      vertex -28 -21.5 13.247
    endloop
  endfacet
  facet normal 0.98777 0 0.1559
    outer loop
      vertex 18.62 -23.5 14.977
      vertex 18.62 -21.5 14.977
      vertex 18.5 -21.5 15.73733
    endloop
  endfacet
  facet normal 0 -1 0
    outer loop
      vertex -26.529 -23.5 2.725
      vertex -24 -23.5 0
      vertex -25.975 -23.5 3.279
    endloop
  endfacet
  facet normal 0 -1 0
    outer loop
      vertex -24 -23.5 5.247
      vertex -25.62 -23.5 3.977
      vertex -24 -23.5 0
    endloop
  endfacet
  facet normal 0 1 0
    outer loop
      vertex 17 -6.502 15.252
      vertex 18.5 -6.502 5.247
      vertex 17 -6.502 5.247
    endloop
  endfacet
  facet normal -0.15714 0 0.98758
    outer loop
      vertex -27.227 -23.5 13.37
      vertex -27.227 -21.5 13.37
      vertex -28 -21.5 13.247
    endloop
  endfacet
  facet normal -0.15714 0 0.98758
    outer loop
      vertex -27.227 -23.5 13.37
      vertex -28 -21.5 13.247
      vertex -28 -23.5 13.247
    endloop
  endfacet
  facet normal 0.89134 0 0.45333
    outer loop
      vertex 18.975 -23.5 14.279
      vertex 18.975 -21.5 14.279
      vertex 18.62 -21.5 14.977
    endloop
  endfacet
  facet normal 0.89134 0 0.45333
    outer loop
      vertex 18.975 -23.5 14.279
      vertex 18.62 -21.5 14.977
      vertex 18.62 -23.5 14.977
    endloop
  endfacet
  facet normal -1 0 0
    outer loop
      vertex -25.5 -21.5 15.73733
      vertex -25.5 -6.502 15.252
      vertex -25.5 -21.5 7.253
    endloop
  endfacet
  facet normal 0 1 0
    outer loop
      vertex -25.62 -21.5 3.977
      vertex -25.5 -21.5 4.73733
      vertex -25.5 -21.5 0
    endloop
  endfacet
  facet normal 0 -1 0
    outer loop
      vertex 17.5 -23.5 20
      vertex 17 -23.5 20
      vertex 18.975 -23.5 17.221
    endloop
  endfacet
  facet normal 0 0 1
    outer loop
      vertex 17 -6.502 5.247
      vertex 18.5 -6.502 5.247
      vertex 17 2.502 5.247
    endloop
  endfacet
  facet normal 0 0 1
    outer loop
      vertex 18.5 2.502 5.247
      vertex 17 2.502 5.247
      vertex 18.5 -6.502 5.247
    endloop
  endfacet
  facet normal -0.45333 0 0.89134
    outer loop
      vertex -26.529 -23.5 13.725
      vertex -26.529 -21.5 13.725
      vertex -27.227 -21.5 13.37
    endloop
  endfacet
  facet normal -0.45333 0 0.89134
    outer loop
      vertex -26.529 -23.5 13.725
      vertex -27.227 -21.5 13.37
      vertex -27.227 -23.5 13.37
    endloop
  endfacet
  facet normal -1 0 0
    outer loop
      vertex -25.5 8.5 20.25
      vertex -25.5 2.502 5.247
      vertex -25.5 2.502 15.252
    endloop
  endfacet
  facet normal 1 0 0
    outer loop
      vertex 18.5 2.502 15.252
      vertex 18.5 -5.498 15.73733
      vertex 18.5 -6.502 15.252
    endloop
  endfacet
  facet normal 1 0 0
    outer loop
      vertex 18.5 -5.498 15.73733
      vertex 18.5 -21.5 15.73733
      vertex 18.5 -6.502 15.252
    endloop
  endfacet
  facet normal 0.70711 0 0.70711
    outer loop
      vertex 19.529 -23.5 13.725
      vertex 19.529 -21.5 13.725
      vertex 18.975 -21.5 14.279
    endloop
  endfacet
  facet normal 0.70711 0 0.70711
    outer loop
      vertex 19.529 -23.5 13.725
      vertex 18.975 -21.5 14.279
      vertex 18.975 -23.5 14.279
    endloop
  endfacet
  facet normal 0 -1 0
    outer loop
      vertex 18.975 -23.5 17.221
      vertex 19.529 -23.5 17.775
      vertex 17.5 -23.5 20
    endloop
  endfacet
  facet normal 0 -1 0
    outer loop
      vertex 25.5 -23.5 20.25
      vertex 17.5 -23.5 20.25
      vertex 21 -23.5 18.252
    endloop
  endfacet
  facet normal 0 -1 0
    outer loop
      vertex 21.773 -23.5 18.13
      vertex 25.5 -23.5 20.25
      vertex 21 -23.5 18.252
    endloop
  endfacet
  facet normal 0 -1 0
    outer loop
      vertex 21 -23.5 18.252
      vertex 17.5 -23.5 20.25
      vertex 20.227 -23.5 18.13
    endloop
  endfacet
  facet normal -0.70711 0 0.70711
    outer loop
      vertex -25.975 -23.5 14.279
      vertex -25.975 -21.5 14.279
      vertex -26.529 -21.5 13.725
    endloop
  endfacet
  facet normal -0.70711 0 0.70711
    outer loop
      vertex -25.975 -23.5 14.279
      vertex -26.529 -21.5 13.725
      vertex -26.529 -23.5 13.725
    endloop
  endfacet
  facet normal -1 0 0
    outer loop
      vertex -25.5 -5.498 4.76267
      vertex -25.5 2.502 5.247
      vertex -25.5 -5.498 4.73733
    endloop
  endfacet
  facet normal -1 0 0
    outer loop
      vertex -25.5 8.5 0
      vertex -25.5 2.502 5.247
      vertex -25.5 8.5 20.25
    endloop
  endfacet
  facet normal 0 1 0
    outer loop
      vertex -25.975 -21.5 6.221
      vertex -25.5 -21.5 7.253
      vertex -25.62 -21.5 5.523
    endloop
  endfacet
  facet normal 0 1 0
    outer loop
      vertex -25.5 -21.5 4.76267
      vertex -25.62 -21.5 5.523
      vertex -25.5 -21.5 7.253
    endloop
  endfacet
  facet normal 0 -1 0
    outer loop
      vertex -25.498 -23.5 4.75
      vertex -24 -23.5 5.247
      vertex -25.62 -23.5 5.523
    endloop
  endfacet
  facet normal 1 0 0
    outer loop
      vertex -24 2.502 15.252
      vertex -24 2.502 5.247
      vertex -24 7 20.25
    endloop
  endfacet
  facet normal 0.45333 0 0.89134
    outer loop
      vertex 20.227 -23.5 13.37
      vertex 20.227 -21.5 13.37
      vertex 19.529 -21.5 13.725
    endloop
  endfacet
  facet normal 0.45333 0 0.89134
    outer loop
      vertex 20.227 -23.5 13.37
      vertex 19.529 -21.5 13.725
      vertex 19.529 -23.5 13.725
    endloop
  endfacet
  facet normal -0.89134 0 0.45333
    outer loop
      vertex -25.62 -23.5 14.977
      vertex -25.62 -21.5 14.977
      vertex -25.975 -21.5 14.279
    endloop
  endfacet
  facet normal -0.89134 0 0.45333
    outer loop
      vertex -25.62 -23.5 14.977
      vertex -25.975 -21.5 14.279
      vertex -25.975 -23.5 14.279
    endloop
  endfacet
  facet normal 0 -1 0
    outer loop
      vertex 21.773 -23.5 18.13
      vertex 22.471 -23.5 17.775
      vertex 25.5 -23.5 20.25
    endloop
  endfacet
  facet normal 0 -1 0
    outer loop
      vertex 22.471 -23.5 17.775
      vertex 23.025 -23.5 17.221
      vertex 25.5 -23.5 20.25
    endloop
  endfacet
  facet normal 0 -1 0
    outer loop
      vertex 23.025 -23.5 17.221
      vertex 23.38 -23.5 16.523
      vertex 25.5 -23.5 20.25
    endloop
  endfacet
  facet normal 0 -1 0
    outer loop
      vertex 23.38 -23.5 16.523
      vertex 23.503 -23.5 15.75
      vertex 25.5 -23.5 20.25
    endloop
  endfacet
  facet normal 0 -1 0
    outer loop
      vertex 25.5 -23.5 13.247
      vertex 25.5 -23.5 20.25
      vertex 23.503 -23.5 15.75
    endloop
  endfacet
  facet normal 0 -1 0
    outer loop
      vertex 23.503 -23.5 15.75
      vertex 23.38 -23.5 14.977
      vertex 25.5 -23.5 13.247
    endloop
  endfacet
  facet normal 1 0 0
    outer loop
      vertex -24 -23.5 5.247
      vertex -24 -6.502 5.247
      vertex -24 -6.502 15.252
    endloop
  endfacet
  facet normal 1 0 0
    outer loop
      vertex -24 -23.5 5.247
      vertex -24 -6.502 15.252
      vertex -24 -23.5 15.252
    endloop
  endfacet
  facet normal -1 0 0
    outer loop
      vertex -25.5 -5.498 15.73733
      vertex -25.5 -5.498 15.76267
      vertex -25.5 2.502 15.252
    endloop
  endfacet
  facet normal 0 1 0
    outer loop
      vertex -26.529 -21.5 6.775
      vertex -25.5 -21.5 7.253
      vertex -25.975 -21.5 6.221
    endloop
  endfacet
  facet normal 0.15714 0 0.98758
    outer loop
      vertex 20.227 -21.5 13.37
      vertex 20.227 -23.5 13.37
      vertex 21 -23.5 13.247
    endloop
  endfacet
  facet normal 0.15714 0 0.98758
    outer loop
      vertex 20.227 -21.5 13.37
      vertex 21 -23.5 13.247
      vertex 21 -21.5 13.247
    endloop
  endfacet
  facet normal -0.98777 0 0.1559
    outer loop
      vertex -25.62 -21.5 14.977
      vertex -25.62 -23.5 14.977
      vertex -25.5 -21.5 15.73733
    endloop
  endfacet
  facet normal 1 0 0
    outer loop
      vertex -24 -23.5 0
      vertex -24 7 0
      vertex -24 -6.502 5.247
    endloop
  endfacet
  facet normal 1 0 0
    outer loop
      vertex -24 -23.5 5.247
      vertex -24 -23.5 0
      vertex -24 -6.502 5.247
    endloop
  endfacet
  facet normal 0 1 0
    outer loop
      vertex -27.227 -21.5 7.13
      vertex -28 -21.5 13.247
      vertex -26.529 -21.5 6.775
    endloop
  endfacet
  facet normal -0.15714 0 0.98758
    outer loop
      vertex 21.773 -23.5 13.37
      vertex 21.773 -21.5 13.37
      vertex 21 -21.5 13.247
    endloop
  endfacet
  facet normal -0.15714 0 0.98758
    outer loop
      vertex 21.773 -23.5 13.37
      vertex 21 -21.5 13.247
      vertex 21 -23.5 13.247
    endloop
  endfacet
  facet normal 0 -1 0
    outer loop
      vertex -25.975 -23.5 6.221
      vertex -24 -23.5 15.252
      vertex -26.529 -23.5 6.775
    endloop
  endfacet
  facet normal 0 -1 0
    outer loop
      vertex 18.62 -23.5 3.977
      vertex 17 -23.5 0
      vertex 18.975 -23.5 3.279
    endloop
  endfacet
  facet normal -0.45333 0 0.89134
    outer loop
      vertex 22.471 -23.5 13.725
      vertex 22.471 -21.5 13.725
      vertex 21.773 -21.5 13.37
    endloop
  endfacet
  facet normal -0.45333 0 0.89134
    outer loop
      vertex 22.471 -23.5 13.725
      vertex 21.773 -21.5 13.37
      vertex 21.773 -23.5 13.37
    endloop
  endfacet
  facet normal 0 1 0
    outer loop
      vertex -28.773 -21.5 13.37
      vertex -28 -21.5 13.247
      vertex -28.773 -21.5 7.13
    endloop
  endfacet
  facet normal 1 0 0
    outer loop
      vertex -24 -23.5 20.25
      vertex -24 -6.502 15.252
      vertex -24 7 20.25
    endloop
  endfacet
  facet normal 0 -1 0
    outer loop
      vertex 18 7 20
      vertex 18 7 20.25
      vertex 17 7 20
    endloop
  endfacet
  facet normal 0 -1 0
    outer loop
      vertex -24 7 20.25
      vertex 17 7 20
      vertex 18 7 20.25
    endloop
  endfacet
  facet normal 0 -1 0
    outer loop
      vertex -26.529 -23.5 13.725
      vertex -27.227 -23.5 13.37
      vertex -26.529 -23.5 6.775
    endloop
  endfacet
  facet normal 0 -1 0
    outer loop
      vertex -25.975 -23.5 14.279
      vertex -26.529 -23.5 13.725
      vertex -26.529 -23.5 6.775
    endloop
  endfacet
  facet normal 0.98758 0 -0.15714
    outer loop
      vertex -30.503 -21.5 15.75
      vertex -30.38 -23.5 16.523
      vertex -30.503 -23.5 15.75
    endloop
  endfacet
  facet normal 1 0 0
    outer loop
      vertex 18 8.5 20.25
      vertex 18 7 20.25
      vertex 18 7 20
    endloop
  endfacet
  facet normal 1 0 0
    outer loop
      vertex 18 8.5 20.25
      vertex 18 7 20
      vertex 18 8.5 20
    endloop
  endfacet
  facet normal -0.70711 0 0.70711
    outer loop
      vertex 23.025 -23.5 14.279
      vertex 23.025 -21.5 14.279
      vertex 22.471 -21.5 13.725
    endloop
  endfacet
  facet normal -0.70711 0 0.70711
    outer loop
      vertex 23.025 -23.5 14.279
      vertex 22.471 -21.5 13.725
      vertex 22.471 -23.5 13.725
    endloop
  endfacet
  facet normal 1 0 0
    outer loop
      vertex -24 2.502 15.252
      vertex -24 7 20.25
      vertex -24 -6.502 15.252
    endloop
  endfacet
  facet normal 1 0 0
    outer loop
      vertex -24 -23.5 15.252
      vertex -24 -6.502 15.252
      vertex -24 -23.5 20.25
    endloop
  endfacet
  facet normal 0 1 0
    outer loop
      vertex 17.5 -21.5 20.25
      vertex 25.5 -21.5 20.25
      vertex 18.5 -21.5 20
    endloop
  endfacet
  facet normal 0 1 0
    outer loop
      vertex 17.5 -21.5 20
      vertex 17.5 -21.5 20.25
      vertex 18.5 -21.5 20
    endloop
  endfacet
  facet normal 0 1 0
    outer loop
      vertex -30.025 -21.5 6.221
      vertex -30.38 -21.5 5.523
      vertex -30.38 -21.5 14.977
    endloop
  endfacet
  facet normal 1 0 0
    outer loop
      vertex -24 7 20.25
      vertex -24 2.502 5.247
      vertex -24 7 0
    endloop
  endfacet
  facet normal 1 0 0
    outer loop
      vertex -24 2.502 5.247
      vertex -24 -6.502 5.247
      vertex -24 7 0
    endloop
  endfacet
  facet normal 0 -1 0
    outer loop
      vertex 18.975 -23.5 3.279
      vertex 17 -23.5 0
      vertex 19.529 -23.5 2.725
    endloop
  endfacet
  facet normal -0.89134 0 0.45333
    outer loop
      vertex 23.38 -23.5 14.977
      vertex 23.38 -21.5 14.977
      vertex 23.025 -21.5 14.279
    endloop
  endfacet
  facet normal -0.89134 0 0.45333
    outer loop
      vertex 23.38 -23.5 14.977
      vertex 23.025 -21.5 14.279
      vertex 23.025 -23.5 14.279
    endloop
  endfacet
  facet normal -0.98777 0 -0.1559
    outer loop
      vertex -25.498 -23.5 15.75
      vertex -25.62 -23.5 16.523
      vertex -25.5 -21.5 15.76267
    endloop
  endfacet
  facet normal -0.98777 0 -0.1559
    outer loop
      vertex -25.62 -21.5 16.523
      vertex -25.5 -21.5 15.76267
      vertex -25.62 -23.5 16.523
    endloop
  endfacet
  facet normal -1 0 0
    outer loop
      vertex 17.5 -21.5 20
      vertex 17.5 -23.5 20
      vertex 17.5 -23.5 20.25
    endloop
  endfacet
  facet normal -1 0 0
    outer loop
      vertex 17.5 -21.5 20
      vertex 17.5 -23.5 20.25
      vertex 17.5 -21.5 20.25
    endloop
  endfacet
  facet normal 1 0 0
    outer loop
      vertex 18.5 -21.5 15.76267
      vertex 18.5 -5.498 15.76267
      vertex 18.5 -21.5 20
    endloop
  endfacet
  facet normal 0 1 0
    outer loop
      vertex -32.5 -21.5 20.25
      vertex -30.38 -21.5 14.977
      vertex -30.38 -21.5 5.523
    endloop
  endfacet
  facet normal 0 1 0
    outer loop
      vertex -32.5 -21.5 0
      vertex -32.5 -21.5 20.25
      vertex -30.503 -21.5 4.75
    endloop
  endfacet
  facet normal -0.89134 0 -0.45333
    outer loop
      vertex -25.975 -23.5 17.221
      vertex -25.975 -21.5 17.221
      vertex -25.62 -21.5 16.523
    endloop
  endfacet
  facet normal -0.89134 0 -0.45333
    outer loop
      vertex -25.975 -23.5 17.221
      vertex -25.62 -21.5 16.523
      vertex -25.62 -23.5 16.523
    endloop
  endfacet
  facet normal 0 -1 0
    outer loop
      vertex 25.5 -23.5 0
      vertex 21 -23.5 2.247
      vertex 17 -23.5 0
    endloop
  endfacet
  facet normal 0 -1 0
    outer loop
      vertex 20.227 -23.5 2.37
      vertex 19.529 -23.5 2.725
      vertex 17 -23.5 0
    endloop
  endfacet
  facet normal -0.98777 0 0.1559
    outer loop
      vertex -25.62 -23.5 3.977
      vertex -25.498 -23.5 4.75
      vertex -25.5 -21.5 4.73733
    endloop
  endfacet
  facet normal -0.98758 0 0.15714
    outer loop
      vertex 23.38 -21.5 14.977
      vertex 23.38 -23.5 14.977
      vertex 23.503 -23.5 15.75
    endloop
  endfacet
  facet normal -0.98758 0 0.15714
    outer loop
      vertex 23.38 -21.5 14.977
      vertex 23.503 -23.5 15.75
      vertex 23.503 -21.5 15.75
    endloop
  endfacet
  facet normal 0 -1 0
    outer loop
      vertex -30.025 -23.5 6.221
      vertex -29.471 -23.5 6.775
      vertex -30.10472 -23.5 7.253
    endloop
  endfacet
  facet normal 0 0 1
    outer loop
      vertex 18 8.5 20
      vertex 18 7 20
      vertex 18.5 8.5 20
    endloop
  endfacet
  facet normal 0 -1 0
    outer loop
      vertex -30.38 -23.5 5.523
      vertex -30.025 -23.5 6.221
      vertex -30.10472 -23.5 7.253
    endloop
  endfacet
  facet normal 0 -1 0
    outer loop
      vertex -30.10472 -23.5 7.253
      vertex -32.5 -23.5 20.25
      vertex -30.38 -23.5 5.523
    endloop
  endfacet
  facet normal -0.70711 0 -0.70711
    outer loop
      vertex -26.529 -23.5 17.775
      vertex -26.529 -21.5 17.775
      vertex -25.975 -21.5 17.221
    endloop
  endfacet
  facet normal -0.70711 0 -0.70711
    outer loop
      vertex -26.529 -23.5 17.775
      vertex -25.975 -21.5 17.221
      vertex -25.975 -23.5 17.221
    endloop
  endfacet
  facet normal -0.98758 0 -0.15714
    outer loop
      vertex 23.503 -21.5 15.75
      vertex 23.503 -23.5 15.75
      vertex 23.38 -21.5 16.523
    endloop
  endfacet
  facet normal -0.98758 0 -0.15714
    outer loop
      vertex 23.38 -23.5 16.523
      vertex 23.38 -21.5 16.523
      vertex 23.503 -23.5 15.75
    endloop
  endfacet
  facet normal 1 0 0
    outer loop
      vertex 18.5 -21.5 20
      vertex 18.5 -5.498 15.76267
      vertex 18.5 8.5 20
    endloop
  endfacet
  facet normal 1 0 0
    outer loop
      vertex 18.5 -5.498 15.76267
      vertex 18.5 2.502 15.252
      vertex 18.5 8.5 20
    endloop
  endfacet
  facet normal 1 0 0
    outer loop
      vertex 18.5 -5.498 15.73733
      vertex 18.5 2.502 15.252
      vertex 18.5 -5.498 15.76267
    endloop
  endfacet
  facet normal 1 0 0
    outer loop
      vertex 18.5 2.502 15.252
      vertex 18.5 2.502 5.247
      vertex 18.5 8.5 20
    endloop
  endfacet
  facet normal -0.45333 0 -0.89134
    outer loop
      vertex -27.227 -23.5 18.13
      vertex -27.227 -21.5 18.13
      vertex -26.529 -21.5 17.775
    endloop
  endfacet
  facet normal -0.45333 0 -0.89134
    outer loop
      vertex -27.227 -23.5 18.13
      vertex -26.529 -21.5 17.775
      vertex -26.529 -23.5 17.775
    endloop
  endfacet
  facet normal -0.89134 0 -0.45333
    outer loop
      vertex 23.025 -23.5 17.221
      vertex 23.025 -21.5 17.221
      vertex 23.38 -21.5 16.523
    endloop
  endfacet
  facet normal -0.89134 0 -0.45333
    outer loop
      vertex 23.025 -23.5 17.221
      vertex 23.38 -21.5 16.523
      vertex 23.38 -23.5 16.523
    endloop
  endfacet
  facet normal 0 0 1
    outer loop
      vertex 18.5 -21.5 20
      vertex 18.5 8.5 20
      vertex 18 7 20
    endloop
  endfacet
  facet normal 0 0 1
    outer loop
      vertex 17 7 20
      vertex 17.5 -21.5 20
      vertex 18 7 20
    endloop
  endfacet
  facet normal 0 0 1
    outer loop
      vertex 18.5 -21.5 20
      vertex 18 7 20
      vertex 17.5 -21.5 20
    endloop
  endfacet
  facet normal 0 1 0
    outer loop
      vertex -29.471 -21.5 13.725
      vertex -28.773 -21.5 13.37
      vertex -29.471 -21.5 6.775
    endloop
  endfacet
  facet normal -0.15714 0 -0.98758
    outer loop
      vertex -28 -23.5 18.253
      vertex -28 -21.5 18.253
      vertex -27.227 -21.5 18.13
    endloop
  endfacet
  facet normal -0.15714 0 -0.98758
    outer loop
      vertex -28 -23.5 18.253
      vertex -27.227 -21.5 18.13
      vertex -27.227 -23.5 18.13
    endloop
  endfacet
  facet normal 0 -1 0
    outer loop
      vertex -30.38 -23.5 14.977
      vertex -30.10472 -23.5 7.253
      vertex -30.025 -23.5 14.279
    endloop
  endfacet
  facet normal -0.70711 0 -0.70711
    outer loop
      vertex 22.471 -23.5 17.775
      vertex 22.471 -21.5 17.775
      vertex 23.025 -21.5 17.221
    endloop
  endfacet
  facet normal -0.70711 0 -0.70711
    outer loop
      vertex 22.471 -23.5 17.775
      vertex 23.025 -21.5 17.221
      vertex 23.025 -23.5 17.221
    endloop
  endfacet
  facet normal 0 -1 0
    outer loop
      vertex 22.471 -23.5 2.725
      vertex 25.5 -23.5 0
      vertex 23.025 -23.5 3.279
    endloop
  endfacet
  facet normal 0 1 0
    outer loop
      vertex -28.773 -21.5 7.13
      vertex -29.471 -21.5 6.775
      vertex -28.773 -21.5 13.37
    endloop
  endfacet
  facet normal 0 1 0
    outer loop
      vertex -30.025 -21.5 14.279
      vertex -29.471 -21.5 13.725
      vertex -29.471 -21.5 6.775
    endloop
  endfacet
  facet normal 0 -1 0
    outer loop
      vertex -29.471 -23.5 13.725
      vertex -30.025 -23.5 14.279
      vertex -30.10472 -23.5 7.253
    endloop
  endfacet
  facet normal 0.15714 0 -0.98758
    outer loop
      vertex -28.773 -23.5 18.13
      vertex -28.773 -21.5 18.13
      vertex -28 -21.5 18.253
    endloop
  endfacet
  facet normal 0.15714 0 -0.98758
    outer loop
      vertex -28.773 -23.5 18.13
      vertex -28 -21.5 18.253
      vertex -28 -23.5 18.253
    endloop
  endfacet
  facet normal 0 0 1
    outer loop
      vertex 17 7 20
      vertex 17 -23.5 20
      vertex 17.5 -21.5 20
    endloop
  endfacet
  facet normal 0 0 1
    outer loop
      vertex 17.5 -23.5 20
      vertex 17.5 -21.5 20
      vertex 17 -23.5 20
    endloop
  endfacet
  facet normal 0 1 0
    outer loop
      vertex -25.5 -21.5 7.253
      vertex -26.529 -21.5 6.775
      vertex -28 -21.5 13.247
    endloop
  endfacet
  facet normal -0.45333 0 -0.89134
    outer loop
      vertex 21.773 -23.5 18.13
      vertex 21.773 -21.5 18.13
      vertex 22.471 -21.5 17.775
    endloop
  endfacet
  facet normal -0.45333 0 -0.89134
    outer loop
      vertex 21.773 -23.5 18.13
      vertex 22.471 -21.5 17.775
      vertex 22.471 -23.5 17.775
    endloop
  endfacet
  facet normal -0.98777 0 0.1559
    outer loop
      vertex -25.5 -5.498 4.73733
      vertex -25.5 -21.5 4.73733
      vertex -25.498 -5.498 4.75
    endloop
  endfacet
  facet normal 0.45333 0 -0.89134
    outer loop
      vertex -29.471 -23.5 17.775
      vertex -29.471 -21.5 17.775
      vertex -28.773 -21.5 18.13
    endloop
  endfacet
  facet normal 0.45333 0 -0.89134
    outer loop
      vertex -29.471 -23.5 17.775
      vertex -28.773 -21.5 18.13
      vertex -28.773 -23.5 18.13
    endloop
  endfacet
  facet normal 0 -1 0
    outer loop
      vertex -28.773 -23.5 13.37
      vertex -29.471 -23.5 13.725
      vertex -30.10472 -23.5 7.253
    endloop
  endfacet
  facet normal 0 -1 0
    outer loop
      vertex -30.10472 -23.5 7.253
      vertex -28.773 -23.5 7.13
      vertex -28.773 -23.5 13.37
    endloop
  endfacet
  facet normal -0.98777 0 -0.1559
    outer loop
      vertex -25.5 -21.5 4.76267
      vertex -25.498 -5.498 4.75
      vertex -25.498 -23.5 4.75
    endloop
  endfacet
  facet normal -0.1559 0 -0.98777
    outer loop
      vertex 21 -23.5 18.252
      vertex 21 -21.5 18.252
      vertex 21.773 -21.5 18.13
    endloop
  endfacet
  facet normal -0.1559 0 -0.98777
    outer loop
      vertex 21 -23.5 18.252
      vertex 21.773 -21.5 18.13
      vertex 21.773 -23.5 18.13
    endloop
  endfacet
  facet normal 0.70711 0 -0.70711
    outer loop
      vertex -30.025 -23.5 17.221
      vertex -30.025 -21.5 17.221
      vertex -29.471 -21.5 17.775
    endloop
  endfacet
  facet normal 0.70711 0 -0.70711
    outer loop
      vertex -30.025 -23.5 17.221
      vertex -29.471 -21.5 17.775
      vertex -29.471 -23.5 17.775
    endloop
  endfacet
  facet normal 0.1559 0 -0.98777
    outer loop
      vertex 20.227 -23.5 18.13
      vertex 20.227 -21.5 18.13
      vertex 21 -21.5 18.252
    endloop
  endfacet
  facet normal 0.1559 0 -0.98777
    outer loop
      vertex 20.227 -23.5 18.13
      vertex 21 -21.5 18.252
      vertex 21 -23.5 18.252
    endloop
  endfacet
  facet normal 0 -1 0
    outer loop
      vertex 23.38 -23.5 5.523
      vertex 25.5 -23.5 13.247
      vertex 23.025 -23.5 6.221
    endloop
  endfacet
  facet normal 0 -1 0
    outer loop
      vertex -28 -23.5 13.247
      vertex -28.773 -23.5 13.37
      vertex -28.773 -23.5 7.13
    endloop
  endfacet
  facet normal 0 -1 0
    outer loop
      vertex -28.773 -23.5 7.13
      vertex -28 -23.5 7.253
      vertex -28 -23.5 13.247
    endloop
  endfacet
  facet normal 0.89134 0 -0.45333
    outer loop
      vertex -30.38 -23.5 16.523
      vertex -30.38 -21.5 16.523
      vertex -30.025 -21.5 17.221
    endloop
  endfacet
  facet normal 0.89134 0 -0.45333
    outer loop
      vertex -30.38 -23.5 16.523
      vertex -30.025 -21.5 17.221
      vertex -30.025 -23.5 17.221
    endloop
  endfacet
  facet normal 0 1 0
    outer loop
      vertex -25.62 -21.5 14.977
      vertex -25.5 -21.5 7.253
      vertex -25.975 -21.5 14.279
    endloop
  endfacet
  facet normal -0.98777 0 0.1559
    outer loop
      vertex -25.498 -23.5 4.75
      vertex -25.498 -5.498 4.75
      vertex -25.5 -21.5 4.73733
    endloop
  endfacet
  facet normal 0 1 0
    outer loop
      vertex 18.975 -21.5 14.279
      vertex 18.5 -21.5 7.252
      vertex 18.62 -21.5 14.977
    endloop
  endfacet
  facet normal 0 1 0
    outer loop
      vertex 18.5 -21.5 15.73733
      vertex 18.62 -21.5 14.977
      vertex 18.5 -21.5 7.252
    endloop
  endfacet
  facet normal 0 -1 0
    outer loop
      vertex 22.471 -23.5 6.775
      vertex 23.025 -23.5 6.221
      vertex 25.5 -23.5 13.247
    endloop
  endfacet
  facet normal 0.45333 0 -0.89134
    outer loop
      vertex 19.529 -23.5 17.775
      vertex 19.529 -21.5 17.775
      vertex 20.227 -21.5 18.13
    endloop
  endfacet
  facet normal 0.45333 0 -0.89134
    outer loop
      vertex 19.529 -23.5 17.775
      vertex 20.227 -21.5 18.13
      vertex 20.227 -23.5 18.13
    endloop
  endfacet
  facet normal 0 1 0
    outer loop
      vertex -25.5 -21.5 15.73733
      vertex -25.5 -21.5 7.253
      vertex -25.62 -21.5 14.977
    endloop
  endfacet
  facet normal 0 1 0
    outer loop
      vertex -26.529 -21.5 13.725
      vertex -25.975 -21.5 14.279
      vertex -25.5 -21.5 7.253
    endloop
  endfacet
  facet normal 0.98758 0 -0.15714
    outer loop
      vertex -30.38 -23.5 16.523
      vertex -30.503 -21.5 15.75
      vertex -30.38 -21.5 16.523
    endloop
  endfacet
  facet normal -0.98777 0 -0.1559
    outer loop
      vertex -25.5 -5.498 4.76267
      vertex -25.498 -5.498 4.75
      vertex -25.5 -21.5 4.76267
    endloop
  endfacet
  facet normal 0 1 0
    outer loop
      vertex 19.529 -21.5 13.725
      vertex 18.5 -21.5 7.252
      vertex 18.975 -21.5 14.279
    endloop
  endfacet
  facet normal 0.70711 0 -0.70711
    outer loop
      vertex 18.975 -23.5 17.221
      vertex 18.975 -21.5 17.221
      vertex 19.529 -21.5 17.775
    endloop
  endfacet
  facet normal 0.70711 0 -0.70711
    outer loop
      vertex 18.975 -23.5 17.221
      vertex 19.529 -21.5 17.775
      vertex 19.529 -23.5 17.775
    endloop
  endfacet
  facet normal 0 1 0
    outer loop
      vertex 20.227 -21.5 13.37
      vertex 18.5 -21.5 7.252
      vertex 19.529 -21.5 13.725
    endloop
  endfacet
  facet normal 0 -1 0
    outer loop
      vertex -25.62 -23.5 14.977
      vertex -25.975 -23.5 14.279
      vertex -24 -23.5 15.252
    endloop
  endfacet
  facet normal 0.89134 0 -0.45333
    outer loop
      vertex 18.62 -23.5 16.523
      vertex 18.62 -21.5 16.523
      vertex 18.975 -21.5 17.221
    endloop
  endfacet
  facet normal 0.89134 0 -0.45333
    outer loop
      vertex 18.62 -23.5 16.523
      vertex 18.975 -21.5 17.221
      vertex 18.975 -23.5 17.221
    endloop
  endfacet
  facet normal 0 1 0
    outer loop
      vertex 21 -21.5 13.247
      vertex 21.773 -21.5 13.37
      vertex 21.773 -21.5 7.13
    endloop
  endfacet
  facet normal 1 0 0
    outer loop
      vertex 18.5 -5.498 4.73733
      vertex 18.5 -21.5 4.73733
      vertex 18.5 -21.5 0
    endloop
  endfacet
  facet normal 0.98777 0 -0.1559
    outer loop
      vertex 18.498 -23.5 15.75
      vertex 18.5 -21.5 15.76267
      vertex 18.62 -23.5 16.523
    endloop
  endfacet
  facet normal 0 1 0
    outer loop
      vertex -25.975 -21.5 17.221
      vertex -25.5 -21.5 20.25
      vertex -25.62 -21.5 16.523
    endloop
  endfacet
  facet normal 0 1 0
    outer loop
      vertex -25.5 -21.5 15.76267
      vertex -25.62 -21.5 16.523
      vertex -25.5 -21.5 20.25
    endloop
  endfacet
  facet normal 0 -1 0
    outer loop
      vertex -24 -23.5 15.252
      vertex -25.62 -23.5 16.523
      vertex -25.498 -23.5 15.75
    endloop
  endfacet
  facet normal 0 1 0
    outer loop
      vertex 22.471 -21.5 13.725
      vertex 22.471 -21.5 6.775
      vertex 21.773 -21.5 13.37
    endloop
  endfacet
  facet normal 0 1 0
    outer loop
      vertex 22.471 -21.5 6.775
      vertex 21.773 -21.5 7.13
      vertex 21.773 -21.5 13.37
    endloop
  endfacet
  facet normal 0.98777 0 0.1559
    outer loop
      vertex 18.5 -21.5 4.73733
      vertex 18.62 -23.5 3.977
      vertex 18.62 -21.5 3.977
    endloop
  endfacet
  facet normal 0 0 1
    outer loop
      vertex -24 -6.502 5.247
      vertex -24 2.502 5.247
      vertex -25.5 -6.502 5.247
    endloop
  endfacet
  facet normal 0 -1 0
    outer loop
      vertex 19.529 -23.5 6.775
      vertex 19.529 -23.5 13.725
      vertex 18.975 -23.5 6.221
    endloop
  endfacet
  facet normal 0 -1 0
    outer loop
      vertex 18.62 -23.5 5.523
      vertex 18.975 -23.5 6.221
      vertex 17 -23.5 5.247
    endloop
  endfacet
  facet normal 1 0 0
    outer loop
      vertex 18.5 -5.498 4.76267
      vertex 18.5 -6.502 5.247
      vertex 18.5 -21.5 4.76267
    endloop
  endfacet
  facet normal 0 1 0
    outer loop
      vertex -26.529 -21.5 17.775
      vertex -25.5 -21.5 20.25
      vertex -25.975 -21.5 17.221
    endloop
  endfacet
  facet normal 0.89134 0 0.45333
    outer loop
      vertex 18.62 -21.5 3.977
      vertex 18.62 -23.5 3.977
      vertex 18.975 -23.5 3.279
    endloop
  endfacet
  facet normal 0.89134 0 0.45333
    outer loop
      vertex 18.62 -21.5 3.977
      vertex 18.975 -23.5 3.279
      vertex 18.975 -21.5 3.279
    endloop
  endfacet
  facet normal 0 -1 0
    outer loop
      vertex -24 -23.5 15.252
      vertex -24 -23.5 20.25
      vertex -25.62 -23.5 16.523
    endloop
  endfacet
  facet normal 1 0 0
    outer loop
      vertex 18.5 2.502 5.247
      vertex 18.5 -5.498 4.73733
      vertex 18.5 8.5 0
    endloop
  endfacet
  facet normal 0 1 0
    outer loop
      vertex -27.227 -21.5 18.13
      vertex -25.5 -21.5 20.25
      vertex -26.529 -21.5 17.775
    endloop
  endfacet
  facet normal 0 -1 0
    outer loop
      vertex -25.975 -23.5 17.221
      vertex -25.62 -23.5 16.523
      vertex -24 -23.5 20.25
    endloop
  endfacet
  facet normal 0.70711 0 0.70711
    outer loop
      vertex 19.529 -23.5 2.725
      vertex 19.529 -21.5 2.725
      vertex 18.975 -21.5 3.279
    endloop
  endfacet
  facet normal 0.70711 0 0.70711
    outer loop
      vertex 19.529 -23.5 2.725
      vertex 18.975 -21.5 3.279
      vertex 18.975 -23.5 3.279
    endloop
  endfacet
  facet normal 0 1 0
    outer loop
      vertex 23.503 -21.5 15.75
      vertex 25.5 -21.5 13.247
      vertex 23.38 -21.5 14.977
    endloop
  endfacet
  facet normal 0 1 0
    outer loop
      vertex 23.38 -21.5 14.977
      vertex 25.5 -21.5 13.247
      vertex 23.025 -21.5 14.279
    endloop
  endfacet
  facet normal 0 1 0
    outer loop
      vertex -28 -21.5 18.253
      vertex -25.5 -21.5 20.25
      vertex -27.227 -21.5 18.13
    endloop
  endfacet
  facet normal 0.45333 0 0.89134
    outer loop
      vertex 20.227 -23.5 2.37
      vertex 20.227 -21.5 2.37
      vertex 19.529 -21.5 2.725
    endloop
  endfacet
  facet normal 0.45333 0 0.89134
    outer loop
      vertex 20.227 -23.5 2.37
      vertex 19.529 -21.5 2.725
      vertex 19.529 -23.5 2.725
    endloop
  endfacet
  facet normal 0 -1 0
    outer loop
      vertex -27.227 -23.5 18.13
      vertex -26.529 -23.5 17.775
      vertex -24 -23.5 20.25
    endloop
  endfacet
  facet normal 0 -1 0
    outer loop
      vertex -26.529 -23.5 17.775
      vertex -25.975 -23.5 17.221
      vertex -24 -23.5 20.25
    endloop
  endfacet
  facet normal 0 1 0
    outer loop
      vertex 23.38 -21.5 16.523
      vertex 25.5 -21.5 20.25
      vertex 23.503 -21.5 15.75
    endloop
  endfacet
  facet normal 0 1 0
    outer loop
      vertex -24 -6.502 5.247
      vertex -25.5 -6.502 5.247
      vertex -25.5 -6.502 15.252
    endloop
  endfacet
  facet normal 0.15714 0 0.98758
    outer loop
      vertex 20.227 -21.5 2.37
      vertex 20.227 -23.5 2.37
      vertex 21 -23.5 2.247
    endloop
  endfacet
  facet normal 0.15714 0 0.98758
    outer loop
      vertex 20.227 -21.5 2.37
      vertex 21 -23.5 2.247
      vertex 21 -21.5 2.247
    endloop
  endfacet
  facet normal 0 1 0
    outer loop
      vertex 21.773 -21.5 18.13
      vertex 25.5 -21.5 20.25
      vertex 22.471 -21.5 17.775
    endloop
  endfacet
  facet normal 0 1 0
    outer loop
      vertex 21 -21.5 18.252
      vertex 25.5 -21.5 20.25
      vertex 21.773 -21.5 18.13
    endloop
  endfacet
  facet normal 0 -1 0
    outer loop
      vertex 22.471 -23.5 13.725
      vertex 21.773 -23.5 13.37
      vertex 21.773 -23.5 7.13
    endloop
  endfacet
  facet normal 0 -1 0
    outer loop
      vertex 25.5 -23.5 13.247
      vertex 22.471 -23.5 13.725
      vertex 21.773 -23.5 7.13
    endloop
  endfacet
  facet normal 0 -1 0
    outer loop
      vertex 21.773 -23.5 13.37
      vertex 21 -23.5 13.247
      vertex 21.773 -23.5 7.13
    endloop
  endfacet
  facet normal 0 -1 0
    outer loop
      vertex 21 -23.5 7.252
      vertex 21.773 -23.5 7.13
      vertex 21 -23.5 13.247
    endloop
  endfacet
  facet normal 0 -1 0
    outer loop
      vertex 20.227 -23.5 7.13
      vertex 21 -23.5 7.252
      vertex 21 -23.5 13.247
    endloop
  endfacet
  facet normal 0 -1 0
    outer loop
      vertex 21 -23.5 13.247
      vertex 20.227 -23.5 13.37
      vertex 20.227 -23.5 7.13
    endloop
  endfacet
  facet normal 0 -1 0
    outer loop
      vertex 19.529 -23.5 6.775
      vertex 20.227 -23.5 7.13
      vertex 20.227 -23.5 13.37
    endloop
  endfacet
  facet normal -0.15714 0 0.98758
    outer loop
      vertex 21.773 -23.5 2.37
      vertex 21.773 -21.5 2.37
      vertex 21 -21.5 2.247
    endloop
  endfacet
  facet normal -0.15714 0 0.98758
    outer loop
      vertex 21.773 -23.5 2.37
      vertex 21 -21.5 2.247
      vertex 21 -23.5 2.247
    endloop
  endfacet
  facet normal -0.98777 0 0.1559
    outer loop
      vertex -25.62 -23.5 14.977
      vertex -25.498 -23.5 15.75
      vertex -25.5 -21.5 15.73733
    endloop
  endfacet
  facet normal 1 0 0
    outer loop
      vertex 18.5 -21.5 15.73733
      vertex 18.5 -21.5 7.252
      vertex 18.5 -6.502 15.252
    endloop
  endfacet
  facet normal 1 0 0
    outer loop
      vertex 18.5 -21.5 4.76267
      vertex 18.5 -6.502 5.247
      vertex 18.5 -21.5 7.252
    endloop
  endfacet
  facet normal 1 0 0
    outer loop
      vertex 18.5 -6.502 5.247
      vertex 18.5 -6.502 15.252
      vertex 18.5 -21.5 7.252
    endloop
  endfacet
  facet normal -0.45333 0 0.89134
    outer loop
      vertex 22.471 -23.5 2.725
      vertex 22.471 -21.5 2.725
      vertex 21.773 -21.5 2.37
    endloop
  endfacet
  facet normal -0.45333 0 0.89134
    outer loop
      vertex 22.471 -23.5 2.725
      vertex 21.773 -21.5 2.37
      vertex 21.773 -23.5 2.37
    endloop
  endfacet
  facet normal 0 -1 0
    outer loop
      vertex 21.773 -23.5 7.13
      vertex 22.471 -23.5 6.775
      vertex 25.5 -23.5 13.247
    endloop
  endfacet
  facet normal 0 -1 0
    outer loop
      vertex 23.38 -23.5 5.523
      vertex 23.503 -23.5 4.75
      vertex 25.5 -23.5 13.247
    endloop
  endfacet
  facet normal 0 -1 0
    outer loop
      vertex 25.5 -23.5 0
      vertex 25.5 -23.5 13.247
      vertex 23.503 -23.5 4.75
    endloop
  endfacet
  facet normal 0 -1 0
    outer loop
      vertex 23.38 -23.5 3.977
      vertex 25.5 -23.5 0
      vertex 23.503 -23.5 4.75
    endloop
  endfacet
  facet normal 0 1 0
    outer loop
      vertex -30.38 -21.5 16.523
      vertex -32.5 -21.5 20.25
      vertex -30.025 -21.5 17.221
    endloop
  endfacet
  facet normal 0 1 0
    outer loop
      vertex 18.62 -21.5 16.523
      vertex 18.5 -21.5 20
      vertex 18.975 -21.5 17.221
    endloop
  endfacet
  facet normal 1 0 0
    outer loop
      vertex 18.5 8.5 0
      vertex 18.5 8.5 20
      vertex 18.5 2.502 5.247
    endloop
  endfacet
  facet normal 0 1 0
    outer loop
      vertex 19.529 -21.5 17.775
      vertex 18.975 -21.5 17.221
      vertex 18.5 -21.5 20
    endloop
  endfacet
  facet normal 0 1 0
    outer loop
      vertex 18.5 -21.5 20
      vertex 18.62 -21.5 16.523
      vertex 18.5 -21.5 15.76267
    endloop
  endfacet
  facet normal -0.70711 0 0.70711
    outer loop
      vertex 23.025 -23.5 3.279
      vertex 23.025 -21.5 3.279
      vertex 22.471 -21.5 2.725
    endloop
  endfacet
  facet normal -0.70711 0 0.70711
    outer loop
      vertex 23.025 -23.5 3.279
      vertex 22.471 -21.5 2.725
      vertex 22.471 -23.5 2.725
    endloop
  endfacet
  facet normal 0 1 0
    outer loop
      vertex -28.773 -21.5 18.13
      vertex -32.5 -21.5 20.25
      vertex -28 -21.5 18.253
    endloop
  endfacet
  facet normal 0 1 0
    outer loop
      vertex -29.471 -21.5 17.775
      vertex -32.5 -21.5 20.25
      vertex -28.773 -21.5 18.13
    endloop
  endfacet
  facet normal 0 1 0
    outer loop
      vertex -29.471 -21.5 17.775
      vertex -30.025 -21.5 17.221
      vertex -32.5 -21.5 20.25
    endloop
  endfacet
  facet normal 0 1 0
    outer loop
      vertex -25.5 -21.5 20.25
      vertex -28 -21.5 18.253
      vertex -32.5 -21.5 20.25
    endloop
  endfacet
  facet normal 0 -1 0
    outer loop
      vertex 23.38 -23.5 3.977
      vertex 23.025 -23.5 3.279
      vertex 25.5 -23.5 0
    endloop
  endfacet
  facet normal 0 -1 0
    outer loop
      vertex 25.5 -23.5 0
      vertex 22.471 -23.5 2.725
      vertex 21.773 -23.5 2.37
    endloop
  endfacet
  facet normal 0 -1 0
    outer loop
      vertex 25.5 -23.5 0
      vertex 21.773 -23.5 2.37
      vertex 21 -23.5 2.247
    endloop
  endfacet
  facet normal 0 -1 0
    outer loop
      vertex 20.227 -23.5 2.37
      vertex 17 -23.5 0
      vertex 21 -23.5 2.247
    endloop
  endfacet
  facet normal 1 0 0
    outer loop
      vertex 18.5 -6.502 5.247
      vertex 18.5 -5.498 4.76267
      vertex 18.5 2.502 5.247
    endloop
  endfacet
  facet normal 1 0 0
    outer loop
      vertex 18.5 -5.498 4.76267
      vertex 18.5 -5.498 4.73733
      vertex 18.5 2.502 5.247
    endloop
  endfacet
  facet normal 0 1 0
    outer loop
      vertex 20.227 -21.5 18.13
      vertex 18.5 -21.5 20
      vertex 21 -21.5 18.252
    endloop
  endfacet
  facet normal 0 1 0
    outer loop
      vertex 20.227 -21.5 18.13
      vertex 19.529 -21.5 17.775
      vertex 18.5 -21.5 20
    endloop
  endfacet
  facet normal 0 1 0
    outer loop
      vertex 25.5 -21.5 20.25
      vertex 21 -21.5 18.252
      vertex 18.5 -21.5 20
    endloop
  endfacet
  facet normal -0.89134 0 0.45333
    outer loop
      vertex 23.38 -23.5 3.977
      vertex 23.38 -21.5 3.977
      vertex 23.025 -21.5 3.279
    endloop
  endfacet
  facet normal -0.89134 0 0.45333
    outer loop
      vertex 23.38 -23.5 3.977
      vertex 23.025 -21.5 3.279
      vertex 23.025 -23.5 3.279
    endloop
  endfacet
  facet normal -0.98777 0 -0.1559
    outer loop
      vertex -25.498 -23.5 15.75
      vertex -25.5 -21.5 15.76267
      vertex -25.498 -5.498 15.75
    endloop
  endfacet
  facet normal 0 -1 0
    outer loop
      vertex 18.62 -23.5 16.523
      vertex 17 -23.5 15.252
      vertex 18.498 -23.5 15.75
    endloop
  endfacet
  facet normal 0 1 0
    outer loop
      vertex 22.471 -21.5 6.775
      vertex 22.471 -21.5 13.725
      vertex 25.5 -21.5 13.247
    endloop
  endfacet
  facet normal 0 1 0
    outer loop
      vertex 25.5 -21.5 13.247
      vertex 23.503 -21.5 15.75
      vertex 25.5 -21.5 20.25
    endloop
  endfacet
  facet normal 0 1 0
    outer loop
      vertex 25.5 -21.5 20.25
      vertex 23.38 -21.5 16.523
      vertex 23.025 -21.5 17.221
    endloop
  endfacet
  facet normal 0 1 0
    outer loop
      vertex 23.025 -21.5 17.221
      vertex 22.471 -21.5 17.775
      vertex 25.5 -21.5 20.25
    endloop
  endfacet
  facet normal 1 0 0
    outer loop
      vertex 18.5 8.5 0
      vertex 18.5 -5.498 4.73733
      vertex 18.5 -21.5 0
    endloop
  endfacet
  facet normal -0.98777 0 0.1559
    outer loop
      vertex -25.5 -5.498 15.73733
      vertex -25.5 -21.5 15.73733
      vertex -25.498 -5.498 15.75
    endloop
  endfacet
  facet normal 0 1 0
    outer loop
      vertex -27.227 -21.5 13.37
      vertex -25.5 -21.5 7.253
      vertex -28 -21.5 13.247
    endloop
  endfacet
  facet normal 0 1 0
    outer loop
      vertex -27.227 -21.5 13.37
      vertex -26.529 -21.5 13.725
      vertex -25.5 -21.5 7.253
    endloop
  endfacet
  facet normal 0 1 0
    outer loop
      vertex -27.227 -21.5 7.13
      vertex -28 -21.5 7.253
      vertex -28 -21.5 13.247
    endloop
  endfacet
  facet normal 0 1 0
    outer loop
      vertex -28 -21.5 7.253
      vertex -28.773 -21.5 7.13
      vertex -28 -21.5 13.247
    endloop
  endfacet
  facet normal 0 -1 0
    outer loop
      vertex -24 7 20.25
      vertex -24 7 0
      vertex 17 7 20
    endloop
  endfacet
  facet normal 0 -1 0
    outer loop
      vertex 17 7 0
      vertex 17 7 20
      vertex -24 7 0
    endloop
  endfacet
  facet normal 0 1 0
    outer loop
      vertex 18.975 -21.5 3.279
      vertex 18.5 -21.5 0
      vertex 18.62 -21.5 3.977
    endloop
  endfacet
  facet normal 0 1 0
    outer loop
      vertex -27.227 -21.5 2.37
      vertex -25.5 -21.5 0
      vertex -28 -21.5 2.247
    endloop
  endfacet
  facet normal 0 1 0
    outer loop
      vertex -25.975 -21.5 3.279
      vertex -25.5 -21.5 0
      vertex -26.529 -21.5 2.725
    endloop
  endfacet
  facet normal 0 1 0
    outer loop
      vertex -27.227 -21.5 2.37
      vertex -26.529 -21.5 2.725
      vertex -25.5 -21.5 0
    endloop
  endfacet
  facet normal 0 1 0
    outer loop
      vertex -28.773 -21.5 2.37
      vertex -28 -21.5 2.247
      vertex -32.5 -21.5 0
    endloop
  endfacet
  facet normal 0 -1 0
    outer loop
      vertex 18.498 -23.5 15.75
      vertex 17 -23.5 15.252
      vertex 18.62 -23.5 14.977
    endloop
  endfacet
  facet normal -0.98758 0 -0.15714
    outer loop
      vertex 23.38 -23.5 5.523
      vertex 23.38 -21.5 5.523
      vertex 23.503 -21.5 4.75
    endloop
  endfacet
  facet normal -0.98758 0 -0.15714
    outer loop
      vertex 23.38 -23.5 5.523
      vertex 23.503 -21.5 4.75
      vertex 23.503 -23.5 4.75
    endloop
  endfacet
  facet normal -0.98777 0 -0.1559
    outer loop
      vertex -25.5 -5.498 15.76267
      vertex -25.498 -5.498 15.75
      vertex -25.5 -21.5 15.76267
    endloop
  endfacet
  facet normal 0 1 0
    outer loop
      vertex 19.529 -21.5 2.725
      vertex 18.5 -21.5 0
      vertex 18.975 -21.5 3.279
    endloop
  endfacet
  facet normal -1 0 0
    outer loop
      vertex 17 2.502 15.252
      vertex 17 7 20
      vertex 17 2.502 5.247
    endloop
  endfacet
  facet normal 0 1 0
    outer loop
      vertex 20.227 -21.5 2.37
      vertex 18.5 -21.5 0
      vertex 19.529 -21.5 2.725
    endloop
  endfacet
  facet normal 0 1 0
    outer loop
      vertex 18.5 -21.5 4.73733
      vertex 18.62 -21.5 3.977
      vertex 18.5 -21.5 0
    endloop
  endfacet
  facet normal -1 0 0
    outer loop
      vertex 17 -23.5 15.252
      vertex 17 -6.502 15.252
      vertex 17 -6.502 5.247
    endloop
  endfacet
  facet normal -1 0 0
    outer loop
      vertex 17 -23.5 15.252
      vertex 17 -6.502 5.247
      vertex 17 -23.5 5.247
    endloop
  endfacet
  facet normal 0 1 0
    outer loop
      vertex 25.5 -21.5 0
      vertex 18.5 -21.5 0
      vertex 21 -21.5 2.247
    endloop
  endfacet
  facet normal -0.89134 0 -0.45333
    outer loop
      vertex 23.025 -23.5 6.221
      vertex 23.025 -21.5 6.221
      vertex 23.38 -21.5 5.523
    endloop
  endfacet
  facet normal -0.89134 0 -0.45333
    outer loop
      vertex 23.025 -23.5 6.221
      vertex 23.38 -21.5 5.523
      vertex 23.38 -23.5 5.523
    endloop
  endfacet
  facet normal -1 0 0
    outer loop
      vertex -25.5 -5.498 4.73733
      vertex -25.5 -21.5 0
      vertex -25.5 -21.5 4.73733
    endloop
  endfacet
  facet normal -1 0 0
    outer loop
      vertex 17 2.502 5.247
      vertex 17 7 0
      vertex 17 -6.502 5.247
    endloop
  endfacet
  facet normal -1 0 0
    outer loop
      vertex 17 7 0
      vertex 17 -23.5 0
      vertex 17 -6.502 5.247
    endloop
  endfacet
  facet normal -1 0 0
    outer loop
      vertex 17 -23.5 5.247
      vertex 17 -6.502 5.247
      vertex 17 -23.5 0
    endloop
  endfacet
  facet normal 0 1 0
    outer loop
      vertex 22.471 -21.5 2.725
      vertex 25.5 -21.5 0
      vertex 21.773 -21.5 2.37
    endloop
  endfacet
  facet normal 0 -1 0
    outer loop
      vertex 17 -23.5 15.252
      vertex 17 -23.5 5.247
      vertex 18.975 -23.5 14.279
    endloop
  endfacet
  facet normal 0 -1 0
    outer loop
      vertex 18.975 -23.5 14.279
      vertex 18.62 -23.5 14.977
      vertex 17 -23.5 15.252
    endloop
  endfacet
  facet normal -0.70711 0 -0.70711
    outer loop
      vertex 22.471 -23.5 6.775
      vertex 22.471 -21.5 6.775
      vertex 23.025 -21.5 6.221
    endloop
  endfacet
  facet normal -0.70711 0 -0.70711
    outer loop
      vertex 22.471 -23.5 6.775
      vertex 23.025 -21.5 6.221
      vertex 23.025 -23.5 6.221
    endloop
  endfacet
  facet normal 0 1 0
    outer loop
      vertex -32.5 -21.5 20.25
      vertex -30.38 -21.5 16.523
      vertex -30.503 -21.5 15.75
    endloop
  endfacet
  facet normal 0 1 0
    outer loop
      vertex -32.5 -21.5 20.25
      vertex -30.503 -21.5 15.75
      vertex -30.38 -21.5 14.977
    endloop
  endfacet
  facet normal 0 1 0
    outer loop
      vertex -29.471 -21.5 6.775
      vertex -30.025 -21.5 6.221
      vertex -30.025 -21.5 14.279
    endloop
  endfacet
  facet normal 0 1 0
    outer loop
      vertex -30.38 -21.5 14.977
      vertex -30.025 -21.5 14.279
      vertex -30.025 -21.5 6.221
    endloop
  endfacet
  facet normal 0 1 0
    outer loop
      vertex -30.38 -21.5 5.523
      vertex -30.503 -21.5 4.75
      vertex -32.5 -21.5 20.25
    endloop
  endfacet
  facet normal 0 1 0
    outer loop
      vertex -30.38 -21.5 3.977
      vertex -32.5 -21.5 0
      vertex -30.503 -21.5 4.75
    endloop
  endfacet
  facet normal -1 0 0
    outer loop
      vertex 17 7 0
      vertex 17 2.502 5.247
      vertex 17 7 20
    endloop
  endfacet
  facet normal -1 0 0
    outer loop
      vertex 17 7 20
      vertex 17 2.502 15.252
      vertex 17 -6.502 15.252
    endloop
  endfacet
  facet normal -1 0 0
    outer loop
      vertex 17 7 20
      vertex 17 -6.502 15.252
      vertex 17 -23.5 20
    endloop
  endfacet
  facet normal -1 0 0
    outer loop
      vertex 17 -23.5 15.252
      vertex 17 -23.5 20
      vertex 17 -6.502 15.252
    endloop
  endfacet
  facet normal -1 0 0
    outer loop
      vertex -32.5 -21.5 0
      vertex -32.5 -23.5 0
      vertex -32.5 -23.5 20.25
    endloop
  endfacet
  facet normal -1 0 0
    outer loop
      vertex -32.5 -21.5 0
      vertex -32.5 -23.5 20.25
      vertex -32.5 -21.5 20.25
    endloop
  endfacet
  facet normal 0 -1 0
    outer loop
      vertex 17 -23.5 5.247
      vertex 18.975 -23.5 6.221
      vertex 19.529 -23.5 13.725
    endloop
  endfacet
  facet normal -0.98777 0 0.1559
    outer loop
      vertex -25.498 -23.5 15.75
      vertex -25.498 -5.498 15.75
      vertex -25.5 -21.5 15.73733
    endloop
  endfacet
  facet normal -0.45333 0 -0.89134
    outer loop
      vertex 21.773 -23.5 7.13
      vertex 21.773 -21.5 7.13
      vertex 22.471 -21.5 6.775
    endloop
  endfacet
  facet normal -0.45333 0 -0.89134
    outer loop
      vertex 21.773 -23.5 7.13
      vertex 22.471 -21.5 6.775
      vertex 22.471 -23.5 6.775
    endloop
  endfacet
  facet normal 0.98758 0 0.15714
    outer loop
      vertex -30.38 -23.5 3.977
      vertex -30.38 -21.5 3.977
      vertex -30.503 -23.5 4.75
    endloop
  endfacet
  facet normal 0.98758 0 0.15714
    outer loop
      vertex -30.503 -21.5 4.75
      vertex -30.503 -23.5 4.75
      vertex -30.38 -21.5 3.977
    endloop
  endfacet
  facet normal -0.1559 0 -0.98777
    outer loop
      vertex 21 -23.5 7.252
      vertex 21 -21.5 7.252
      vertex 21.773 -21.5 7.13
    endloop
  endfacet
  facet normal -0.1559 0 -0.98777
    outer loop
      vertex 21 -23.5 7.252
      vertex 21.773 -21.5 7.13
      vertex 21.773 -23.5 7.13
    endloop
  endfacet
  facet normal 0.89134 0 0.45333
    outer loop
      vertex -30.38 -21.5 3.977
      vertex -30.38 -23.5 3.977
      vertex -30.025 -23.5 3.279
    endloop
  endfacet
  facet normal 0.89134 0 0.45333
    outer loop
      vertex -30.38 -21.5 3.977
      vertex -30.025 -23.5 3.279
      vertex -30.025 -21.5 3.279
    endloop
  endfacet
  facet normal 0.98777 0 0.1559
    outer loop
      vertex 18.62 -23.5 14.977
      vertex 18.5 -21.5 15.73733
      vertex 18.498 -23.5 15.75
    endloop
  endfacet
  facet normal 0.1559 0 -0.98777
    outer loop
      vertex 20.227 -23.5 7.13
      vertex 20.227 -21.5 7.13
      vertex 21 -21.5 7.252
    endloop
  endfacet
  facet normal 0.1559 0 -0.98777
    outer loop
      vertex 20.227 -23.5 7.13
      vertex 21 -21.5 7.252
      vertex 21 -23.5 7.252
    endloop
  endfacet
  facet normal 0.45333 0 -0.89134
    outer loop
      vertex 19.529 -23.5 6.775
      vertex 19.529 -21.5 6.775
      vertex 20.227 -21.5 7.13
    endloop
  endfacet
  facet normal 0.45333 0 -0.89134
    outer loop
      vertex 19.529 -23.5 6.775
      vertex 20.227 -21.5 7.13
      vertex 20.227 -23.5 7.13
    endloop
  endfacet
  facet normal -1 0 0
    outer loop
      vertex -25.5 2.502 5.247
      vertex -25.5 8.5 0
      vertex -25.5 -5.498 4.73733
    endloop
  endfacet
  facet normal -1 0 0
    outer loop
      vertex -25.5 -21.5 0
      vertex -25.5 -5.498 4.73733
      vertex -25.5 8.5 0
    endloop
  endfacet
  facet normal 0 1 0
    outer loop
      vertex -24 -6.502 5.247
      vertex -25.5 -6.502 15.252
      vertex -24 -6.502 15.252
    endloop
  endfacet
  facet normal 0 -1 0
    outer loop
      vertex 18.498 -23.5 4.75
      vertex 17 -23.5 5.247
      vertex 18.62 -23.5 3.977
    endloop
  endfacet
  facet normal 0 -1 0
    outer loop
      vertex -25.5 -5.498 4.73733
      vertex -25.498 -5.498 4.75
      vertex -25.5 -5.498 4.76267
    endloop
  endfacet
  facet normal 0.70711 0 -0.70711
    outer loop
      vertex 18.975 -23.5 6.221
      vertex 18.975 -21.5 6.221
      vertex 19.529 -21.5 6.775
    endloop
  endfacet
  facet normal 0.70711 0 -0.70711
    outer loop
      vertex 18.975 -23.5 6.221
      vertex 19.529 -21.5 6.775
      vertex 19.529 -23.5 6.775
    endloop
  endfacet
  facet normal 0 -1 0
    outer loop
      vertex -25.5 -5.498 15.73733
      vertex -25.498 -5.498 15.75
      vertex -25.5 -5.498 15.76267
    endloop
  endfacet
  facet normal 0 -1 0
    outer loop
      vertex -25.5 2.502 15.252
      vertex -25.5 2.502 5.247
      vertex -24 2.502 5.247
    endloop
  endfacet
  facet normal 0.89134 0 -0.45333
    outer loop
      vertex 18.62 -23.5 5.523
      vertex 18.62 -21.5 5.523
      vertex 18.975 -21.5 6.221
    endloop
  endfacet
  facet normal 0.89134 0 -0.45333
    outer loop
      vertex 18.62 -23.5 5.523
      vertex 18.975 -21.5 6.221
      vertex 18.975 -23.5 6.221
    endloop
  endfacet
  facet normal 0 -1 0
    outer loop
      vertex 18.498 -23.5 4.75
      vertex 18.62 -23.5 5.523
      vertex 17 -23.5 5.247
    endloop
  endfacet
  facet normal 0.98777 0 -0.1559
    outer loop
      vertex 18.5 -5.498 15.76267
      vertex 18.5 -21.5 15.76267
      vertex 18.498 -5.498 15.75
    endloop
  endfacet
  facet normal 0.98777 0 0.1559
    outer loop
      vertex 18.498 -5.498 15.75
      vertex 18.498 -23.5 15.75
      vertex 18.5 -21.5 15.73733
    endloop
  endfacet
  facet normal -1 0 0
    outer loop
      vertex -25.5 -21.5 7.253
      vertex -25.5 -6.502 5.247
      vertex -25.5 -21.5 4.76267
    endloop
  endfacet
  facet normal 0 0 1
    outer loop
      vertex -25.5 2.502 5.247
      vertex -25.5 -6.502 5.247
      vertex -24 2.502 5.247
    endloop
  endfacet
  facet normal 0.98777 0 -0.1559
    outer loop
      vertex 18.498 -23.5 4.75
      vertex 18.5 -21.5 4.76267
      vertex 18.62 -23.5 5.523
    endloop
  endfacet
  facet normal 0.98777 0 -0.1559
    outer loop
      vertex 18.62 -21.5 5.523
      vertex 18.62 -23.5 5.523
      vertex 18.5 -21.5 4.76267
    endloop
  endfacet
  facet normal 0.98777 0 -0.1559
    outer loop
      vertex 18.498 -23.5 15.75
      vertex 18.498 -5.498 15.75
      vertex 18.5 -21.5 15.76267
    endloop
  endfacet
  facet normal 0.98777 0 0.1559
    outer loop
      vertex 18.5 -21.5 15.73733
      vertex 18.5 -5.498 15.73733
      vertex 18.498 -5.498 15.75
    endloop
  endfacet
  facet normal -1 0 0
    outer loop
      vertex -25.5 -5.498 4.76267
      vertex -25.5 -21.5 4.76267
      vertex -25.5 -6.502 5.247
    endloop
  endfacet
  facet normal 0 0 -1
    outer loop
      vertex -24 2.502 15.252
      vertex -24 -6.502 15.252
      vertex -25.5 2.502 15.252
    endloop
  endfacet
  facet normal 0 -1 0
    outer loop
      vertex 20.227 -23.5 13.37
      vertex 19.529 -23.5 13.725
      vertex 19.529 -23.5 6.775
    endloop
  endfacet
  facet normal 0.98777 0 0.1559
    outer loop
      vertex 18.62 -23.5 3.977
      vertex 18.5 -21.5 4.73733
      vertex 18.498 -23.5 4.75
    endloop
  endfacet
  facet normal 0 -1 0
    outer loop
      vertex -24 2.502 15.252
      vertex -25.5 2.502 15.252
      vertex -24 2.502 5.247
    endloop
  endfacet
  facet normal -1 0 0
    outer loop
      vertex -25.5 -6.502 5.247
      vertex -25.5 -21.5 7.253
      vertex -25.5 -6.502 15.252
    endloop
  endfacet
  facet normal 0 0 -1
    outer loop
      vertex 17 -6.502 15.252
      vertex 17 2.502 15.252
      vertex 18.5 2.502 15.252
    endloop
  endfacet
  facet normal 0 0 -1
    outer loop
      vertex 18.5 -6.502 15.252
      vertex 17 -6.502 15.252
      vertex 18.5 2.502 15.252
    endloop
  endfacet
  facet normal -0.98758 0 0.15714
    outer loop
      vertex 23.503 -23.5 4.75
      vertex 23.503 -21.5 4.75
      vertex 23.38 -23.5 3.977
    endloop
  endfacet
  facet normal -0.98758 0 0.15714
    outer loop
      vertex 23.38 -21.5 3.977
      vertex 23.38 -23.5 3.977
      vertex 23.503 -21.5 4.75
    endloop
  endfacet
  facet normal 0 1 0
    outer loop
      vertex 18.5 -6.502 15.252
      vertex 18.5 -6.502 5.247
      vertex 17 -6.502 15.252
    endloop
  endfacet
  facet normal 0 0 -1
    outer loop
      vertex -25.5 -6.502 15.252
      vertex -25.5 2.502 15.252
      vertex -24 -6.502 15.252
    endloop
  endfacet
endsolid stl_item0
